<?xml version="1.0" encoding="UTF-8"?>
<svg id="Layer_2" data-name="Layer 2" xmlns="http://www.w3.org/2000/svg" viewBox="0 0 484.96 484.96">
  <defs>
    <style>
      .cls-1 {
        fill: none;
        stroke: #e6e7e8;
        stroke-linejoin: bevel;
        stroke-width: 24px;
      }

      .cls-2, .cls-3, .cls-4 {
        stroke-width: 0px;
      }

      .cls-3 {
        fill: #2a2b2c;
      }

      .cls-4 {
        fill: #e6e7e8;
      }
    </style>
  </defs>
  <g id="Layer_1-2" data-name="Layer 1">
    <g>
      <rect class="cls-3" x="107.02" y="107.02" width="270.92" height="270.92" transform="translate(-100.44 242.48) rotate(-45)"/>
      <path class="cls-2" d="M242.48,67.88l174.6,174.6-174.6,174.6L67.88,242.48,242.48,67.88M242.48,33.94L33.94,242.48l208.54,208.54,208.54-208.54L242.48,33.94h0Z"/>
    </g>
    <g>
      <polyline class="cls-1" points="282.22 402.16 282.14 293.23 282.22 178.48"/>
      <polyline class="cls-1" points="202.73 87.45 202.73 191.72 202.73 306.73"/>
      <line class="cls-1" x1="282.22" y1="242.36" x2="202.73" y2="242.36"/>
    </g>
    <path class="cls-4" d="M242.48,67.88l174.6,174.6-174.6,174.6L67.88,242.48,242.48,67.88M242.48,33.94L33.94,242.48l208.54,208.54,208.54-208.54L242.48,33.94h0Z"/>
    <path class="cls-3" d="M242.48,33.94l208.54,208.54-208.54,208.54L33.94,242.48,242.48,33.94M242.48,0l-16.97,16.97L16.97,225.51,0,242.48l16.97,16.97,208.54,208.54,16.97,16.97,16.97-16.97,208.54-208.54,16.97-16.97-16.97-16.97L259.45,16.97,242.48,0h0Z"/>
  </g>
</svg>